<?xml version="1.0" encoding="iso-8859-1"?>
<!-- Generator: Adobe Illustrator 19.0.0, SVG Export Plug-In . SVG Version: 6.00 Build 0)  -->
<svg xmlns="http://www.w3.org/2000/svg" xmlns:xlink="http://www.w3.org/1999/xlink" version="1.1" id="Capa_1" x="0px" y="0px" viewBox="0 0 512 512" style="enable-background:new 0 0 512 512;" xml:space="preserve">
<rect x="242.026" y="314.489" style="fill:#F2F2F2;" width="27.94" height="138.068"/>
<rect x="242.026" y="314.489" style="fill:#E3E5E5;" width="13.97" height="138.068"/>
<path style="fill:#3BBC56;" d="M390.55,7.5H121.453c-14.857,0-26.945,12.089-26.945,26.947v255.095  c0,14.858,12.088,26.946,26.945,26.946H390.55c14.857,0,26.945-12.088,26.945-26.946V34.447C417.495,19.589,405.408,7.5,390.55,7.5z  "/>
<path style="fill:#2EAF43;" d="M122.447,289.543V34.447c0-14.858,12.088-26.947,26.945-26.947h-27.94  c-14.857,0-26.945,12.089-26.945,26.947v255.095c0,14.858,12.088,26.946,26.945,26.946h27.94  C134.535,316.489,122.447,304.401,122.447,289.543z"/>
<path style="fill:#77E584;" d="M389.556,276.549c0,6.628-5.372,12.001-12.001,12.001H134.448c-6.628,0-12.001-5.372-12.001-12.001  V47.443c0-6.627,5.372-12.001,12.001-12.001h243.108c6.628,0,12.001,5.373,12.001,12.001V276.549z"/>
<path style="fill:#54DD6B;" d="M149.393,276.549V47.443c0-6.627,5.373-12.001,12.001-12.001h-26.945  c-6.628,0-12.001,5.373-12.001,12.001V276.55c0,6.628,5.372,12.001,12.001,12.001h26.945  C154.765,288.549,149.393,283.177,149.393,276.549z"/>
<path style="fill:#BABABA;" d="M292.645,477.529c-7.964,0-66.226,0-73.285,0c-6.628,0-12.001,5.372-12.001,12.001v2.969  c0,6.628,5.372,12.001,12.001,12.001c32.263,0,41.236,0,73.285,0c6.628,0,12.001-5.372,12.001-12.001v-2.969  C304.646,482.901,299.274,477.529,292.645,477.529z"/>
<path style="fill:#989DA0;" d="M256.002,492.499v-2.969c0-6.628,5.372-12.001,12.001-12.001c-18.722,0-31.369,0-48.644,0  c-6.628,0-12.001,5.372-12.001,12.001v2.969c0,6.628,5.372,12.001,12.001,12.001c22.664,0,25.758,0,48.644,0  C261.374,504.5,256.002,499.127,256.002,492.499z"/>
<path style="fill:#E3E5E5;" d="M289.645,465.528c0,6.627-5.372,12.001-12.001,12.001h-43.284c-6.628,0-12.001-5.373-12.001-12.001  v-2.971c0-6.627,5.372-12.001,12.001-12.001h43.284c6.628,0,12.001,5.373,12.001,12.001V465.528z"/>
<path style="fill:#D6D6D6;" d="M256.002,465.528v-2.971c0-6.627,5.372-12.001,12.001-12.001H234.36  c-6.628,0-12.001,5.373-12.001,12.001v2.971c0,6.627,5.372,12.001,12.001,12.001h33.643  C261.374,477.529,256.002,472.156,256.002,465.528z"/>
<path style="fill:#F5F5F5;" d="M285.779,98.229c-11.212-5.538-14.581-4.28-76.808-4.28c-2.209,0-4,1.791-4,4V234.65  c0,2.209,1.791,4,4,4h25.424c2.209,0,4-1.791,4-4v-42.672c30.823,0,37.571,1.037,48.301-4.075  C322.083,171.054,324.033,117.137,285.779,98.229z M238.395,123.297c28.837,0,28.079-0.333,31.787,1.119  c15.02,5.903,13.072,38.419-4.477,38.419h-27.311L238.395,123.297L238.395,123.297z"/>
<path d="M272.922,117.434c-5.408-2.117-6.227-1.637-34.527-1.637c-4.142,0-7.5,3.358-7.5,7.5v39.538c0,4.142,3.358,7.5,7.5,7.5  h27.311C291.572,170.336,295.622,126.361,272.922,117.434z M270.15,152.917c-2.639,3.143-2.089,2.418-24.255,2.418v-24.537h18.587  C274.696,130.798,273.936,148.416,270.15,152.917z"/>
<path d="M266.724,86.448h-61.753c-4.142,0-7.5,3.358-7.5,7.5V238.65c0,4.142,3.358,7.5,7.5,7.5h33.424c4.142,0,7.5-3.358,7.5-7.5  v-39.171h21.847c39.818,0,63.732-42.514,49.645-77.178C308.946,101.591,289.949,86.448,266.724,86.448z M267.742,184.479h-29.348  c-4.142,0-7.5,3.358-7.5,7.5v39.171H212.47V101.449c59.286,0,60.818-1.023,69.985,3.504  C321.703,124.354,309.464,184.479,267.742,184.479z"/>
<path d="M114.946,35.441v253.108c0,4.142,3.358,7.5,7.5,7.5h267.109c4.143,0,7.5-3.358,7.5-7.5V35.441c0-4.142-3.357-7.5-7.5-7.5  H122.447C118.305,27.941,114.946,31.299,114.946,35.441z M129.947,42.942h252.108v238.107H129.947V42.942z"/>
<path d="M390.55,0H174.512c-4.142,0-7.5,3.358-7.5,7.5s3.358,7.5,7.5,7.5h216.037c10.722,0,19.444,8.724,19.444,19.446v255.095  c0,10.723-8.724,19.445-19.444,19.445c-7.866,0-260.506,0-269.097,0c-10.722,0-19.444-8.724-19.444-19.445V34.447  c0-10.723,8.724-19.446,19.445-19.446h18.057c4.142,0,7.5-3.358,7.5-7.5s-3.357-7.5-7.5-7.5h-18.058  C102.46,0,87.007,15.453,87.007,34.447v255.095c0,18.994,15.452,34.446,34.445,34.446H234.53v119.067  c-11.309,0-19.672,9.064-19.672,19.501c0,3.167-0.119,4.915,0.645,7.857c-8.913,1.795-15.646,9.682-15.646,19.115v2.969  c0,10.753,8.749,19.501,19.501,19.501h73.285c10.753,0,19.501-8.749,19.501-19.501v-2.969c0-9.434-6.733-17.32-15.646-19.115  c3.849-14.833-5.643-27.359-19.029-27.359v-24.454c0-4.142-3.357-7.5-7.5-7.5s-7.5,3.358-7.5,7.5v24.454H249.53V323.99h12.939V383.6  c0,4.142,3.357,7.5,7.5,7.5s7.5-3.358,7.5-7.5V323.99h113.079c18.993,0,34.445-15.453,34.445-34.446V34.447  C424.995,15.453,409.543,0,390.55,0z M297.145,492.499c0,2.481-2.019,4.5-4.5,4.5h-73.285c-2.481,0-4.5-2.019-4.5-4.5v-2.969  c0-2.481,2.019-4.5,4.5-4.5c8.351,0,66.298,0,73.285,0c2.481,0,4.5,2.019,4.5,4.5V492.499z M277.643,458.057  c2.481,0,4.5,2.019,4.5,4.5v2.971c0,2.481-2.019,4.5-4.5,4.5H234.36c-2.481,0-4.5-2.019-4.5-4.5v-2.971c0-2.481,2.019-4.5,4.5-4.5  C286.022,458.057,227.211,458.057,277.643,458.057z"/>
<g>
</g>
<g>
</g>
<g>
</g>
<g>
</g>
<g>
</g>
<g>
</g>
<g>
</g>
<g>
</g>
<g>
</g>
<g>
</g>
<g>
</g>
<g>
</g>
<g>
</g>
<g>
</g>
<g>
</g>
</svg>
