<?xml version="1.0" encoding="UTF-8"?>
<!DOCTYPE svg PUBLIC "-//W3C//DTD SVG 1.1//EN" "http://www.w3.org/Graphics/SVG/1.1/DTD/svg11.dtd">
<!-- Creator: CorelDRAW -->
<svg xmlns="http://www.w3.org/2000/svg" xml:space="preserve" width="2048px" height="2048px" style="shape-rendering:geometricPrecision; text-rendering:geometricPrecision; image-rendering:optimizeQuality; fill-rule:evenodd; clip-rule:evenodd"
viewBox="0 0 2048 2048"
 xmlns:xlink="http://www.w3.org/1999/xlink">
 <defs>
  <style type="text/css">
   <![CDATA[
    .fil2 {fill:none}
    .fil3 {fill:#0288D1}
    .fil4 {fill:#29B6F6}
    .fil5 {fill:#4FC3F7}
    .fil6 {fill:#81D4FA}
    .fil1 {fill:#F4511E}
    .fil0 {fill:#FF8A65}
   ]]>
  </style>
   <clipPath id="id0">
    <path d="M1024 -0.0011811c565.539,0 1024,458.462 1024,1024 0,565.539 -458.462,1024 -1024,1024 -565.539,0 -1024,-458.462 -1024,-1024 0,-565.539 458.462,-1024 1024,-1024z"/>
   </clipPath>
 </defs>
 <g id="Layer_x0020_1">
  <metadata id="CorelCorpID_0Corel-Layer"/>
  <path class="fil0" d="M1024 -0.0011811c565.539,0 1024,458.462 1024,1024 0,565.539 -458.462,1024 -1024,1024 -565.539,0 -1024,-458.462 -1024,-1024 0,-565.539 458.462,-1024 1024,-1024z"/>
  <g style="clip-path:url(#id0)">
   <g id="_466485104">
    <g>
     <polygon id="_3892949441" class="fil1" points="1572.66,692.482 2708.54,1828.36 2710.07,1830.29 2711.48,1832.28 2712.79,1834.33 2713.99,1836.42 2715.07,1838.57 2716.05,1840.75 2716.92,1842.97 2717.67,1845.22 2718.32,1847.51 2718.85,1849.82 2719.28,1852.14 2719.59,1854.49 2719.79,1856.84 2719.88,1859.2 2719.85,1861.57 2719.71,1863.93 2719.46,1866.28 2719.1,1868.63 2718.62,1870.96 2718.03,1873.27 2717.33,1875.55 2716.51,1877.81 2715.57,1880.03 2714.53,1882.22 2713.36,1884.37 2712.08,1886.47 2710.69,1888.52 2709.18,1890.51 2707.55,1892.45 2705.82,1894.3 2704.03,1896.04 2702.16,1897.68 2700.23,1899.21 2698.24,1900.62 2696.2,1901.93 2694.1,1903.13 2691.96,1904.22 2689.77,1905.2 2687.55,1906.07 2685.29,1906.82 2683.01,1907.47 2680.7,1908.01 2678.37,1908.43 2676.03,1908.74 2673.67,1908.94 2671.31,1909.03 2668.94,1909 2666.58,1908.87 2664.22,1908.62 2661.88,1908.25 2659.54,1907.77 2657.23,1907.18 2654.95,1906.48 2652.69,1905.65 2650.46,1904.72 2648.27,1903.67 2646.13,1902.5 2644.03,1901.22 2641.98,1899.82 2639.98,1898.31 2638.04,1896.68 1502.16,760.797 1504.1,762.427 1506.09,763.941 1508.14,765.338 1510.24,766.62 1512.39,767.786 1514.58,768.837 1516.81,769.772 1519.07,770.593 1521.35,771.299 1523.66,771.891 1525.99,772.369 1528.34,772.733 1530.7,772.984 1533.06,773.122 1535.43,773.147 1537.79,773.058 1540.14,772.858 1542.49,772.547 1544.82,772.123 1547.13,771.588 1549.41,770.94 1551.67,770.183 1553.89,769.315 1556.08,768.336 1558.22,767.247 1560.32,766.048 1562.36,764.741 1564.35,763.323 1566.28,761.796 1568.15,760.162 1569.94,758.418 1571.67,756.566 1573.3,754.631 1574.81,752.636 1576.2,750.585 1577.48,748.485 1578.64,746.339 1579.69,744.152 1580.63,741.928 1581.45,739.669 1582.15,737.384 1582.74,735.074 1583.22,732.745 1583.58,730.4 1583.83,728.045 1583.97,725.683 1584,723.319 1583.91,720.958 1583.71,718.604 1583.4,716.261 1582.97,713.933 1582.44,711.625 1581.79,709.342 1581.04,707.088 1580.17,704.867 1579.19,702.683 1578.1,700.541 1576.91,698.445 1575.6,696.401 1574.19,694.412 "/>
     <polygon id="_389279752" class="fil1" points="1502.16,760.797 2638.04,1896.68 2625.58,1885.88 2612.89,1875.4 2600,1865.24 2586.89,1855.39 2573.59,1845.87 2560.1,1836.67 2546.42,1827.79 2532.55,1819.24 2518.51,1811.01 2504.3,1803.11 2489.93,1795.55 2475.39,1788.32 2460.71,1781.42 2445.88,1774.85 2430.9,1768.63 2415.79,1762.74 2400.56,1757.19 2385.2,1751.99 2369.72,1747.13 2354.13,1742.61 2338.43,1738.45 2322.64,1734.63 2306.75,1731.16 2290.77,1728.04 2274.71,1725.28 2258.58,1722.88 2242.37,1720.83 2226.1,1719.14 2209.77,1717.81 2193.38,1716.84 2176.95,1716.23 2160.48,1716 2144,1716.12 2127.57,1716.62 2111.17,1717.47 2094.82,1718.69 2078.53,1720.27 2062.3,1722.21 2046.14,1724.5 2030.06,1727.15 2014.05,1730.16 1998.13,1733.51 1982.3,1737.22 1966.57,1741.28 1950.93,1745.69 1935.41,1750.44 1920.01,1755.54 1904.73,1760.98 1889.57,1766.76 1874.54,1772.88 1859.66,1779.34 1844.92,1786.14 1830.33,1793.28 1815.89,1800.74 1801.62,1808.54 1787.52,1816.68 1773.59,1825.14 1759.84,1833.93 1746.28,1843.04 1732.91,1852.48 1719.74,1862.24 1706.77,1872.33 1694.02,1882.73 1681.48,1893.46 1679.53,1895.07 1677.53,1896.57 1675.48,1897.95 1673.37,1899.21 1671.22,1900.36 1669.03,1901.39 1666.8,1902.31 1664.53,1903.12 1662.24,1903.81 1659.93,1904.38 1657.59,1904.85 1655.24,1905.2 1652.88,1905.43 1650.51,1905.56 1648.15,1905.57 1645.78,1905.47 1643.42,1905.25 1641.08,1904.93 1638.75,1904.49 1636.44,1903.94 1634.16,1903.29 1631.91,1902.52 1629.69,1901.64 1627.51,1900.65 1625.37,1899.55 1623.28,1898.35 1621.24,1897.03 1619.26,1895.61 1617.34,1894.07 1615.49,1892.43 479.608,756.55 481.463,758.19 483.382,759.723 485.363,761.148 487.4,762.464 489.488,763.671 491.626,764.768 493.806,765.756 496.024,766.635 498.278,767.403 500.561,768.061 502.869,768.609 505.198,769.045 507.543,769.369 509.9,769.583 512.265,769.685 514.633,769.673 517,769.55 519.359,769.314 521.71,768.964 524.045,768.503 526.36,767.926 528.652,767.236 530.915,766.431 533.146,765.512 535.34,764.479 537.492,763.329 539.598,762.064 541.653,760.684 543.654,759.187 545.594,757.574 558.135,746.851 570.893,736.446 583.86,726.361 597.031,716.598 610.401,707.158 623.963,698.043 637.71,689.254 651.638,680.794 665.741,672.662 680.012,664.861 694.445,657.393 709.035,650.259 723.777,643.46 738.662,637 753.687,630.877 768.844,625.094 784.127,619.654 799.534,614.556 815.053,609.804 830.684,605.398 846.416,601.34 862.247,597.631 878.169,594.274 894.175,591.27 910.263,588.619 926.423,586.324 942.652,584.386 958.941,582.808 975.288,581.589 991.684,580.733 1008.12,580.241 1024.6,580.113 1041.07,580.352 1057.5,580.955 1073.89,581.924 1090.22,583.254 1106.49,584.944 1122.69,586.993 1138.83,589.399 1154.89,592.161 1170.87,595.277 1186.76,598.746 1202.55,602.565 1218.25,606.732 1233.84,611.247 1249.32,616.107 1264.68,621.311 1279.91,626.858 1295.02,632.745 1309.99,638.971 1324.83,645.536 1339.51,652.434 1354.05,659.667 1368.42,667.232 1382.63,675.128 1396.67,683.353 1410.54,691.906 1424.22,700.784 1437.71,709.985 1451.01,719.509 1464.11,729.355 1477.01,739.518 1489.7,749.999 "/>
     <polygon id="_389302816" class="fil1" points="1433.8,925.561 2569.68,2061.44 2571.31,2063.32 2572.82,2065.25 2574.23,2067.25 2575.53,2069.3 2576.71,2071.4 2577.79,2073.55 2578.75,2075.74 2579.61,2077.97 2580.36,2080.23 2580.99,2082.51 2581.51,2084.82 2581.92,2087.15 2582.22,2089.5 2582.41,2091.85 2582.48,2094.22 2582.45,2096.58 2582.3,2098.94 2582.03,2101.3 2581.66,2103.64 2581.17,2105.97 2580.56,2108.28 2579.84,2110.56 2579.01,2112.81 2578.07,2115.03 2577.01,2117.21 2575.83,2119.35 2574.54,2121.45 2573.13,2123.49 2571.61,2125.48 2569.97,2127.4 1434.09,991.522 1435.73,989.594 1437.25,987.608 1438.66,985.566 1439.95,983.472 1441.12,981.331 1442.19,979.149 1443.13,976.929 1443.96,974.676 1444.68,972.393 1445.29,970.086 1445.78,967.758 1446.15,965.415 1446.42,963.061 1446.57,960.699 1446.6,958.335 1446.53,955.972 1446.34,953.617 1446.04,951.271 1445.63,948.941 1445.11,946.629 1444.47,944.343 1443.73,942.085 1442.87,939.858 1441.91,937.67 1440.83,935.521 1439.64,933.42 1438.35,931.368 1436.94,929.372 1435.43,927.435 "/>
     <polygon id="_389307544" class="fil1" points="1434.09,991.522 2569.97,2127.4 2568.24,2129.25 2566.43,2130.98 2564.56,2132.6 2562.62,2134.12 2560.62,2135.52 2558.57,2136.82 2556.47,2138.01 2554.32,2139.08 2552.14,2140.05 2549.91,2140.9 2547.65,2141.65 2545.36,2142.28 2543.05,2142.8 2540.72,2143.22 2538.38,2143.51 2536.02,2143.7 2533.66,2143.78 2531.3,2143.74 2528.93,2143.59 2526.58,2143.33 2524.24,2142.95 2521.91,2142.46 2519.6,2141.86 2517.32,2141.14 2515.07,2140.31 2512.85,2139.36 2510.67,2138.3 2508.53,2137.12 2506.43,2135.83 2504.39,2134.43 2502.4,2132.9 2500.48,2131.27 1364.59,995.384 1366.52,997.022 1368.51,998.544 1370.55,999.95 1372.65,1001.24 1374.78,1002.42 1376.97,1003.48 1379.19,1004.42 1381.44,1005.26 1383.72,1005.97 1386.03,1006.58 1388.36,1007.07 1390.7,1007.44 1393.05,1007.71 1395.42,1007.86 1397.78,1007.89 1400.14,1007.82 1402.5,1007.63 1404.84,1007.33 1407.17,1006.92 1409.48,1006.4 1411.77,1005.77 1414.03,1005.02 1416.25,1004.17 1418.44,1003.2 1420.59,1002.12 1422.69,1000.94 1424.74,999.641 1426.74,998.235 1428.68,996.72 1430.55,995.096 1432.36,993.363 "/>
     <polygon id="_389291848" class="fil1" points="1364.59,995.384 2500.48,2131.27 2491.09,2123.07 2481.55,2115.11 2471.84,2107.39 2461.98,2099.91 2451.96,2092.68 2441.81,2085.69 2431.5,2078.95 2421.07,2072.45 2410.49,2066.21 2399.79,2060.21 2388.97,2054.47 2378.02,2048.97 2366.96,2043.73 2355.79,2038.75 2344.51,2034.02 2333.12,2029.55 2321.64,2025.34 2310.06,2021.39 2298.39,2017.69 2286.64,2014.27 2274.8,2011.1 2262.89,2008.2 2250.91,2005.57 2238.85,2003.2 2226.74,2001.1 2214.56,1999.27 2202.32,1997.71 2190.04,1996.43 2177.71,1995.42 2165.33,1994.68 2152.92,1994.22 2140.47,1994.04 2128,1994.13 2115.55,1994.51 2103.14,1995.16 2090.77,1996.09 2078.44,1997.29 2066.16,1998.77 2053.93,2000.52 2041.75,2002.54 2029.64,2004.83 2017.59,2007.39 2005.61,2010.22 1993.7,2013.31 1981.87,2016.66 1970.13,2020.28 1958.47,2024.16 1946.91,2028.3 1935.44,2032.7 1924.07,2037.36 1912.81,2042.27 1901.66,2047.44 1890.62,2052.86 1879.7,2058.53 1868.91,2064.46 1858.24,2070.63 1847.7,2077.06 1837.3,2083.72 1827.05,2090.64 1816.93,2097.8 1806.97,2105.2 1797.16,2112.84 1787.51,2120.72 1778.02,2128.84 642.143,992.962 651.63,984.841 661.28,976.958 671.088,969.315 681.05,961.914 691.164,954.755 701.422,947.841 711.821,941.173 722.358,934.75 733.026,928.576 743.822,922.652 754.742,916.979 765.779,911.558 776.931,906.389 788.193,901.477 799.561,896.82 811.028,892.42 822.594,888.281 834.25,884.401 845.994,880.782 857.821,877.426 869.727,874.335 881.707,871.509 893.755,868.951 905.87,866.661 918.044,864.64 930.276,862.889 942.559,861.412 954.889,860.208 967.262,859.279 979.673,858.627 992.118,858.251 1004.59,858.155 1017.04,858.338 1029.45,858.799 1041.83,859.535 1054.16,860.547 1066.44,861.832 1078.68,863.389 1090.85,865.217 1102.97,867.316 1115.03,869.683 1127.01,872.318 1138.92,875.218 1150.76,878.383 1162.51,881.812 1174.18,885.504 1185.76,889.456 1197.24,893.668 1208.62,898.139 1219.91,902.867 1231.08,907.851 1242.14,913.091 1253.09,918.584 1263.91,924.329 1274.61,930.326 1285.19,936.571 1295.62,943.066 1305.92,949.808 1316.08,956.796 1326.1,964.028 1335.96,971.506 1345.66,979.224 1355.21,987.184 "/>
     <polygon id="_389283184" class="fil1" points="642.143,992.962 1778.02,2128.84 1776.08,2130.46 1774.08,2131.96 1772.03,2133.34 1769.92,2134.6 1767.77,2135.75 1765.58,2136.79 1763.35,2137.71 1761.08,2138.52 1758.79,2139.21 1756.48,2139.78 1754.14,2140.25 1751.79,2140.59 1749.43,2140.83 1747.06,2140.96 1744.69,2140.97 1742.33,2140.87 1739.97,2140.65 1737.62,2140.33 1735.29,2139.89 1732.99,2139.34 1730.7,2138.69 1728.45,2137.92 1726.23,2137.04 1724.05,2136.05 1721.91,2134.95 1719.82,2133.74 1717.78,2132.43 1715.8,2131 1713.88,2129.47 1712.03,2127.83 576.147,991.947 578.001,993.589 579.922,995.122 581.902,996.546 583.94,997.862 586.03,999.069 588.168,1000.17 590.348,1001.16 592.568,1002.04 594.821,1002.8 597.104,1003.46 599.413,1004.01 601.743,1004.44 604.089,1004.77 606.447,1004.98 608.813,1005.08 611.181,1005.07 613.548,1004.95 615.908,1004.71 618.258,1004.36 620.594,1003.9 622.91,1003.32 625.202,1002.63 627.466,1001.83 629.697,1000.91 631.89,999.872 634.042,998.722 636.148,997.456 638.203,996.074 640.203,994.576 "/>
     <polygon id="_389300608" class="fil1" points="1299.29,1104.58 2435.17,2240.47 2436.9,2242.27 2438.52,2244.15 2440.04,2246.08 2441.44,2248.08 2442.74,2250.13 2443.92,2252.23 2445,2254.38 2445.97,2256.57 2446.82,2258.8 2447.56,2261.05 2448.2,2263.34 2448.72,2265.65 2449.13,2267.98 2449.43,2270.33 2449.62,2272.68 2449.69,2275.04 2449.65,2277.41 2449.5,2279.77 2449.24,2282.12 2448.86,2284.46 2448.37,2286.79 2447.77,2289.1 2447.05,2291.38 2446.22,2293.63 2445.27,2295.85 2444.21,2298.03 2443.04,2300.17 2441.75,2302.27 2440.34,2304.31 2438.82,2306.29 2437.18,2308.22 2435.45,2310.06 2433.64,2311.8 2431.77,2313.42 2429.83,2314.94 2427.83,2316.34 2425.78,2317.64 2423.68,2318.82 2421.53,2319.9 2419.34,2320.87 2417.11,2321.72 2414.85,2322.47 2412.57,2323.1 2410.26,2323.62 2407.92,2324.03 2405.58,2324.33 2403.22,2324.52 2400.86,2324.6 2398.49,2324.56 2396.13,2324.41 2393.78,2324.14 2391.43,2323.77 2389.11,2323.28 2386.8,2322.67 2384.52,2321.95 2382.26,2321.12 2380.04,2320.17 2377.86,2319.11 2375.72,2317.94 2373.63,2316.64 2371.58,2315.24 2369.6,2313.71 2367.67,2312.07 1231.79,1176.19 1233.72,1177.83 1235.7,1179.35 1237.75,1180.76 1239.84,1182.05 1241.98,1183.23 1244.16,1184.29 1246.38,1185.24 1248.64,1186.07 1250.92,1186.79 1253.22,1187.39 1255.55,1187.89 1257.9,1188.26 1260.25,1188.53 1262.61,1188.68 1264.98,1188.71 1267.34,1188.64 1269.7,1188.45 1272.04,1188.15 1274.37,1187.74 1276.69,1187.22 1278.97,1186.59 1281.23,1185.84 1283.46,1184.98 1285.65,1184.02 1287.8,1182.94 1289.9,1181.76 1291.95,1180.46 1293.95,1179.05 1295.88,1177.54 1297.76,1175.91 1299.57,1174.18 1301.3,1172.34 1302.94,1170.41 1304.46,1168.43 1305.87,1166.38 1307.16,1164.29 1308.33,1162.15 1309.39,1159.97 1310.34,1157.75 1311.17,1155.5 1311.89,1153.21 1312.49,1150.91 1312.98,1148.58 1313.36,1146.24 1313.62,1143.88 1313.77,1141.52 1313.81,1139.16 1313.74,1136.8 1313.55,1134.44 1313.25,1132.1 1312.84,1129.77 1312.32,1127.46 1311.68,1125.17 1310.94,1122.91 1310.08,1120.69 1309.12,1118.5 1308.04,1116.35 1306.86,1114.25 1305.56,1112.2 1304.16,1110.2 1302.64,1108.26 1301.02,1106.39 "/>
     <polygon id="_389301904" class="fil1" points="1231.79,1176.19 2367.67,2312.07 2366.25,2310.8 2364.82,2309.54 2363.38,2308.29 2361.94,2307.04 2360.49,2305.81 2359.04,2304.57 2357.57,2303.35 2356.11,2302.14 2354.63,2300.93 2353.15,2299.73 2351.67,2298.54 2350.17,2297.35 2348.67,2296.18 2347.17,2295.01 2345.66,2293.85 2344.14,2292.7 2342.61,2291.56 2341.08,2290.43 2339.55,2289.3 2338,2288.18 2336.45,2287.07 2334.9,2285.97 2333.34,2284.88 2331.77,2283.8 2330.2,2282.73 2328.62,2281.66 2327.03,2280.61 2325.44,2279.56 2323.84,2278.52 2322.24,2277.49 2320.62,2276.47 2319.01,2275.46 2317.47,2274.51 2315.93,2273.57 2314.38,2272.64 2312.82,2271.71 2311.26,2270.8 2309.7,2269.89 2308.13,2269 2306.56,2268.11 2304.98,2267.23 2303.39,2266.36 2301.81,2265.5 2300.21,2264.65 2298.61,2263.81 2297.01,2262.97 2295.4,2262.15 2293.79,2261.34 2292.17,2260.53 2290.55,2259.74 2288.92,2258.95 2287.29,2258.18 2285.66,2257.41 2284.02,2256.66 2282.37,2255.91 2280.72,2255.18 2279.07,2254.45 2277.41,2253.73 2275.75,2253.03 2274.08,2252.33 2272.4,2251.65 2270.73,2250.97 2269.05,2250.3 2267.36,2249.65 2265.67,2249 2263.98,2248.37 2262.29,2247.75 2260.59,2247.13 2258.89,2246.53 2257.19,2245.94 2255.48,2245.36 2253.77,2244.78 2252.06,2244.22 2250.34,2243.67 2248.62,2243.13 2246.9,2242.6 2245.18,2242.07 2243.45,2241.56 2241.72,2241.06 2239.98,2240.57 2238.25,2240.09 2236.51,2239.62 2234.76,2239.16 2233.02,2238.71 2231.27,2238.27 2229.52,2237.84 2227.76,2237.42 2226.01,2237.01 2224.25,2236.61 2222.49,2236.23 2220.72,2235.85 2218.96,2235.48 2217.19,2235.12 2215.42,2234.77 2213.65,2234.44 2211.87,2234.11 2210.02,2233.78 2208.17,2233.47 2206.31,2233.16 2204.45,2232.87 2202.6,2232.59 2200.74,2232.31 2198.88,2232.05 2197.01,2231.8 2195.15,2231.57 2193.28,2231.34 2191.42,2231.12 2189.55,2230.92 2187.68,2230.72 2185.81,2230.54 2183.94,2230.37 2182.07,2230.21 2180.19,2230.05 2178.32,2229.91 2176.44,2229.78 2174.57,2229.66 2172.69,2229.55 2170.82,2229.45 2168.94,2229.35 2167.06,2229.27 2165.18,2229.2 2163.31,2229.14 2161.43,2229.09 2159.55,2229.05 2157.67,2229.01 2155.79,2228.99 2153.91,2228.98 2152.03,2228.97 2148.32,2228.99 2144.62,2229.05 2140.92,2229.14 2137.22,2229.27 2133.53,2229.44 2129.84,2229.64 2126.16,2229.89 2122.48,2230.17 2118.81,2230.49 2115.14,2230.85 2111.48,2231.25 2107.83,2231.69 2104.18,2232.18 2100.54,2232.7 2096.9,2233.26 2093.27,2233.86 2089.65,2234.51 2086.04,2235.19 2082.44,2235.92 2078.84,2236.69 2075.25,2237.51 2071.67,2238.36 2068.1,2239.26 2064.54,2240.2 2060.99,2241.19 2057.45,2242.22 2053.91,2243.3 2050.39,2244.41 2046.88,2245.58 2043.38,2246.79 2039.89,2248.04 2036.41,2249.34 2033,2250.67 2029.61,2252.03 2026.24,2253.44 2022.9,2254.88 2019.58,2256.36 2016.28,2257.88 2013,2259.44 2009.74,2261.04 2006.51,2262.68 2003.3,2264.35 2000.11,2266.06 1996.94,2267.81 1993.8,2269.6 1990.67,2271.42 1987.57,2273.28 1984.49,2275.18 1981.44,2277.11 1978.4,2279.07 1975.39,2281.08 1972.4,2283.11 1969.43,2285.19 1966.49,2287.29 1963.56,2289.44 1960.66,2291.61 1957.78,2293.82 1954.93,2296.06 1952.1,2298.34 1949.28,2300.65 1946.49,2302.99 1943.73,2305.37 1940.98,2307.78 1938.26,2310.21 1936.34,2311.86 1934.36,2313.4 1932.33,2314.82 1930.25,2316.12 1928.11,2317.31 1925.94,2318.38 1923.72,2319.34 1921.47,2320.19 1919.19,2320.92 1916.89,2321.53 1914.57,2322.04 1912.23,2322.43 1909.87,2322.7 1907.51,2322.87 1905.15,2322.92 1902.78,2322.86 1900.43,2322.68 1898.08,2322.4 1895.75,2322 1893.43,2321.49 1891.14,2320.87 1888.88,2320.14 1886.65,2319.29 1884.45,2318.34 1882.3,2317.27 1880.19,2316.1 1878.13,2314.81 1876.13,2313.42 1874.18,2311.92 1872.3,2310.3 736.42,1174.42 738.303,1176.03 740.249,1177.54 742.254,1178.93 744.312,1180.22 746.421,1181.39 748.574,1182.46 750.768,1183.41 752.999,1184.25 755.262,1184.99 757.553,1185.61 759.866,1186.12 762.199,1186.51 764.546,1186.8 766.903,1186.97 769.267,1187.04 771.63,1186.99 773.991,1186.82 776.344,1186.54 778.685,1186.15 781.009,1185.65 783.312,1185.04 785.591,1184.3 787.84,1183.46 790.054,1182.5 792.231,1181.43 794.364,1180.24 796.45,1178.93 798.484,1177.52 800.462,1175.98 802.379,1174.33 805.101,1171.89 807.846,1169.48 810.612,1167.11 813.402,1164.77 816.214,1162.46 819.048,1160.18 821.904,1157.94 824.782,1155.73 827.683,1153.55 830.606,1151.41 833.552,1149.3 836.519,1147.23 839.508,1145.19 842.521,1143.19 845.555,1141.22 848.611,1139.29 851.69,1137.4 854.79,1135.54 857.914,1133.72 861.059,1131.93 864.226,1130.18 867.416,1128.47 870.628,1126.8 873.862,1125.16 877.118,1123.56 880.396,1122 883.697,1120.48 887.019,1119 890.363,1117.55 893.73,1116.15 897.119,1114.79 900.53,1113.46 904.008,1112.16 907.498,1110.91 910.999,1109.7 914.511,1108.53 918.033,1107.41 921.564,1106.34 925.106,1105.31 928.659,1104.32 932.22,1103.38 935.79,1102.48 939.37,1101.62 942.959,1100.81 946.555,1100.04 950.16,1099.31 953.773,1098.63 957.393,1097.98 961.02,1097.38 964.655,1096.82 968.297,1096.29 971.945,1095.81 975.601,1095.37 979.261,1094.97 982.928,1094.61 986.6,1094.29 990.278,1094 993.961,1093.76 997.648,1093.55 1001.34,1093.39 1005.04,1093.26 1008.74,1093.16 1012.44,1093.11 1016.15,1093.09 1018.03,1093.09 1019.91,1093.11 1021.79,1093.13 1023.67,1093.16 1025.55,1093.21 1027.43,1093.26 1029.3,1093.32 1031.18,1093.39 1033.06,1093.47 1034.94,1093.56 1036.81,1093.67 1038.69,1093.78 1040.56,1093.9 1042.44,1094.03 1044.31,1094.17 1046.19,1094.32 1048.06,1094.48 1049.93,1094.66 1051.8,1094.84 1053.67,1095.04 1055.54,1095.24 1057.4,1095.46 1059.27,1095.68 1061.13,1095.92 1063,1096.17 1064.86,1096.43 1066.72,1096.7 1068.57,1096.99 1070.43,1097.28 1072.28,1097.58 1074.14,1097.9 1075.99,1098.23 1077.76,1098.56 1079.54,1098.89 1081.31,1099.24 1083.08,1099.6 1084.84,1099.97 1086.61,1100.34 1088.37,1100.73 1090.13,1101.13 1091.88,1101.54 1093.64,1101.96 1095.39,1102.39 1097.14,1102.83 1098.88,1103.28 1100.62,1103.74 1102.36,1104.21 1104.1,1104.69 1105.84,1105.18 1107.57,1105.68 1109.3,1106.19 1111.02,1106.71 1112.74,1107.24 1114.46,1107.79 1116.18,1108.34 1117.89,1108.9 1119.6,1109.47 1121.31,1110.06 1123.01,1110.65 1124.71,1111.25 1126.41,1111.87 1128.1,1112.49 1129.79,1113.12 1131.48,1113.77 1133.16,1114.42 1134.85,1115.09 1136.52,1115.76 1138.2,1116.45 1139.86,1117.15 1141.53,1117.85 1143.19,1118.57 1144.84,1119.29 1146.49,1120.03 1148.14,1120.78 1149.78,1121.53 1151.41,1122.3 1153.04,1123.07 1154.67,1123.86 1156.29,1124.65 1157.91,1125.46 1159.52,1126.27 1161.13,1127.09 1162.73,1127.93 1164.33,1128.77 1165.92,1129.62 1167.51,1130.48 1169.1,1131.35 1170.68,1132.23 1172.25,1133.11 1173.82,1134.01 1175.38,1134.92 1176.94,1135.83 1178.5,1136.75 1180.04,1137.69 1181.59,1138.63 1183.13,1139.58 1184.74,1140.59 1186.35,1141.61 1187.96,1142.64 1189.56,1143.68 1191.15,1144.72 1192.74,1145.78 1194.32,1146.84 1195.89,1147.92 1197.46,1149 1199.02,1150.09 1200.57,1151.19 1202.12,1152.3 1203.67,1153.42 1205.2,1154.54 1206.73,1155.68 1208.26,1156.82 1209.77,1157.97 1211.29,1159.13 1212.79,1160.3 1214.29,1161.47 1215.78,1162.66 1217.27,1163.85 1218.75,1165.05 1220.22,1166.25 1221.69,1167.47 1223.15,1168.69 1224.61,1169.92 1226.06,1171.16 1227.5,1172.41 1228.94,1173.66 1230.37,1174.92 "/>
     <path id="_389293672" class="fil1" d="M2033.21 2573.81l0 0zm-1135.88 -1135.88l0 0z"/>
     <polygon id="_389289448" class="fil1" points="1112.8,1343.33 2248.68,2479.21 2250.16,2480.63 2251.63,2482.08 1115.75,1346.2 1114.28,1344.75 "/>
     <polygon id="_389292712" class="fil1" points="1115.75,1346.2 2251.63,2482.08 2253.97,2484.47 2256.23,2486.89 2258.42,2489.35 2260.53,2491.83 2262.56,2494.34 2264.51,2496.88 2266.39,2499.46 2268.2,2502.06 2269.93,2504.7 2271.58,2507.36 2273.16,2510.06 2274.66,2512.79 2276.09,2515.55 2277.44,2518.34 2278.72,2521.16 2279.92,2524.01 2281.05,2526.89 2282.11,2529.8 2283.09,2532.74 2284,2535.72 2284.83,2538.72 2285.59,2541.76 2286.28,2544.83 2286.89,2547.92 2287.44,2551.05 2287.91,2554.21 2288.3,2557.4 2288.63,2560.62 2288.88,2563.87 2289.06,2567.16 2289.16,2570.47 2289.2,2573.81 1153.32,1437.93 1153.28,1434.59 1153.18,1431.27 1153,1427.99 1152.74,1424.74 1152.42,1421.52 1152.02,1418.33 1151.56,1415.17 1151.01,1412.04 1150.4,1408.94 1149.71,1405.88 1148.95,1402.84 1148.12,1399.84 1147.21,1396.86 1146.23,1393.92 1145.17,1391.01 1144.04,1388.12 1142.84,1385.27 1141.56,1382.45 1140.21,1379.66 1138.78,1376.91 1137.28,1374.18 1135.7,1371.48 1134.04,1368.81 1132.32,1366.18 1130.51,1363.57 1128.63,1361 1126.68,1358.46 1124.64,1355.94 1122.54,1353.46 1120.35,1351.01 1118.09,1348.59 "/>
     <polygon id="_389311408" class="fil1" points="1153.32,1437.93 2289.2,2573.81 2289.16,2577.15 2289.06,2580.45 2288.88,2583.72 2288.63,2586.95 2288.3,2590.15 2287.91,2593.31 2287.44,2596.44 2286.89,2599.53 2286.28,2602.59 2285.59,2605.61 2284.83,2608.6 2284,2611.56 2283.09,2614.48 2282.11,2617.37 2281.05,2620.23 2279.92,2623.05 2278.72,2625.84 2277.44,2628.59 2276.09,2631.32 2274.66,2634 2273.16,2636.66 2271.58,2639.29 2269.93,2641.88 2268.2,2644.44 2266.39,2646.97 2264.51,2649.47 2262.56,2651.93 2260.53,2654.37 2258.42,2656.77 2256.23,2659.14 2253.97,2661.48 2251.63,2663.79 1115.75,1527.91 1118.09,1525.6 1120.35,1523.26 1122.54,1520.89 1124.64,1518.48 1126.68,1516.05 1128.63,1513.58 1130.51,1511.09 1132.32,1508.56 1134.04,1506 1135.7,1503.41 1137.28,1500.78 1138.78,1498.12 1140.21,1495.43 1141.56,1492.71 1142.84,1489.95 1144.04,1487.17 1145.17,1484.34 1146.23,1481.49 1147.21,1478.6 1148.12,1475.68 1148.95,1472.72 1149.71,1469.73 1150.4,1466.71 1151.01,1463.65 1151.56,1460.56 1152.02,1457.43 1152.42,1454.27 1152.74,1451.07 1153,1447.84 1153.18,1444.57 1153.28,1441.27 "/>
     <polygon id="_389296360" class="fil1" points="1115.75,1527.91 2251.63,2663.79 2249.32,2666.12 2246.98,2668.38 2244.61,2670.57 2242.21,2672.67 2239.78,2674.71 2237.31,2676.66 2234.82,2678.55 2232.29,2680.36 2229.73,2682.09 2227.14,2683.75 2224.51,2685.34 2221.85,2686.85 2219.17,2688.29 2216.44,2689.66 2213.69,2690.95 2210.9,2692.18 2208.08,2693.33 2205.22,2694.41 2202.34,2695.42 2199.41,2696.36 2196.46,2697.23 2193.47,2698.03 2190.44,2698.76 2187.38,2699.42 2184.29,2700.01 2181.16,2700.53 2178,2700.98 2174.8,2701.36 2171.56,2701.68 2168.29,2701.93 2164.99,2702.11 2161.65,2702.22 1025.76,1566.34 1029.11,1566.23 1032.41,1566.04 1035.68,1565.8 1038.92,1565.48 1042.12,1565.1 1045.28,1564.64 1048.41,1564.12 1051.5,1563.53 1054.56,1562.87 1057.59,1562.14 1060.58,1561.35 1063.53,1560.48 1066.45,1559.54 1069.34,1558.53 1072.2,1557.45 1075.02,1556.3 1077.81,1555.07 1080.56,1553.78 1083.28,1552.41 1085.97,1550.97 1088.63,1549.45 1091.25,1547.87 1093.85,1546.21 1096.41,1544.47 1098.94,1542.66 1101.43,1540.78 1103.9,1538.83 1106.33,1536.79 1108.73,1534.69 1111.1,1532.5 1113.44,1530.24 "/>
     <polygon id="_389306488" class="fil1" points="1025.76,1566.34 2161.65,2702.22 2158.3,2702.11 2154.99,2701.93 2151.71,2701.68 2148.46,2701.36 2145.24,2700.98 2142.05,2700.53 2138.89,2700.01 2135.76,2699.42 2132.66,2698.76 2129.6,2698.03 2126.56,2697.23 2123.56,2696.36 2120.58,2695.42 2117.64,2694.41 2114.73,2693.33 2111.85,2692.18 2109,2690.95 2106.18,2689.66 2103.39,2688.29 2100.63,2686.85 2097.9,2685.34 2095.21,2683.75 2092.54,2682.09 2089.9,2680.36 2087.3,2678.55 2084.73,2676.66 2082.18,2674.71 2079.67,2672.67 2077.19,2670.57 2074.74,2668.38 938.855,1532.5 941.307,1534.69 943.789,1536.79 946.301,1538.83 948.844,1540.78 951.418,1542.66 954.022,1544.47 956.658,1546.21 959.324,1547.87 962.02,1549.45 964.749,1550.97 967.507,1552.41 970.295,1553.78 973.116,1555.07 975.966,1556.3 978.848,1557.45 981.759,1558.53 984.702,1559.54 987.676,1560.48 990.681,1561.35 993.717,1562.14 996.783,1562.87 999.88,1563.53 1003.01,1564.12 1006.17,1564.64 1009.35,1565.1 1012.58,1565.48 1015.83,1565.8 1019.11,1566.04 1022.42,1566.23 "/>
    </g>
    <path id="_466484336" class="fil1" d="M1024.77 481.666c199.884,0.668504 392.894,72.6556 542.672,205.428 20.2996,17.9941 22.2083,49.154 4.22953,69.4725 -17.9882,20.328 -49.1882,22.2414 -69.5044,4.23071 -131.811,-116.847 -301.669,-180.096 -477.563,-180.684 -175.947,-0.589371 -346.405,61.3855 -479.007,177.461 -20.3669,17.8276 -51.6567,15.7394 -69.4796,-4.62874 -17.8205,-20.3669 -15.7335,-51.6473 4.62874,-69.4725 150.601,-131.83 344.148,-202.477 544.023,-201.807zm-19.9984 278.042c157.1,0.553937 308.229,57.4489 425.459,162.313 20.2252,18.091 21.9555,49.2792 3.86339,69.5008 -18.0933,20.2205 -49.2744,21.952 -69.4961,3.86221 -99.2056,-88.7398 -227.073,-136.76 -360.001,-137.229 -133.204,-0.470079 -262.152,46.9087 -362.45,134.806 -20.3622,17.8429 -51.665,15.7524 -69.4902,-4.61929 -17.8181,-20.3634 -15.7288,-51.6319 4.61693,-69.463 118.296,-103.669 270.357,-159.727 427.498,-159.171zm162.162 262.184c23.7697,9.15473 46.5922,20.5465 68.2276,33.9839 22.1303,13.7457 42.8918,29.5973 62.2902,46.9737 20.2075,18.098 21.9414,49.2709 3.85158,69.489 -18.0957,20.224 -49.2922,21.9603 -69.5103,3.85158 -15.1476,-13.5697 -31.3843,-25.8792 -48.6626,-36.6118 -16.3866,-10.1787 -33.6425,-18.8764 -51.6473,-25.8118 -17.9705,-6.92127 -36.5398,-12.1099 -55.4906,-15.5362 -19.7339,-3.56693 -39.7937,-5.14016 -59.8382,-5.14016 -39.5693,0 -78.5776,6.25158 -115.621,20.3717 -36.5008,13.9146 -69.2315,34.6796 -98.1509,60.8705 -20.1142,18.2162 -51.3142,16.6524 -69.5186,-3.46772 -18.1996,-20.1154 -16.6382,-51.2941 3.46654,-69.502 38.0079,-34.4209 81.13,-61.7434 129.104,-80.0304 48.3,-18.411 99.0969,-26.8831 150.719,-26.8831 25.9181,0 51.7784,2.28071 77.2843,6.89174 25.0937,4.5378 49.6985,11.3847 73.4953,20.5512zm-269.599 416.039l0 0zm40.2083 -94.3572c24.4642,-22.6996 54.1737,-34.0855 88.2249,-33.1725 24.4713,0 46.3158,6.09095 66.3981,17.4555 7.87205,4.35237 15.7181,10.4728 23.589,18.3449 25.35,25.3252 37.5674,55.8945 37.5674,91.7292 0,35.7957 -12.2173,65.5052 -37.5674,89.9764 -24.4713,25.3193 -54.1512,37.5733 -89.9871,38.4331 -35.8299,-0.859843 -66.3934,-13.1138 -91.7186,-38.4331 -24.4725,-24.4713 -36.7146,-54.1808 -36.7264,-89.9764 0,-35.8347 12.2539,-66.404 36.7264,-91.7292 0.889371,-0.884646 1.74449,-1.74449 3.4937,-2.62795z"/>
   </g>
  </g>
  <path class="fil2" d="M1024 -0.0011811c565.539,0 1024,458.462 1024,1024 0,565.539 -458.462,1024 -1024,1024 -565.539,0 -1024,-458.462 -1024,-1024 0,-565.539 458.462,-1024 1024,-1024z"/>
  <path class="fil3" d="M897.331 1437.93c0,35.7945 12.2421,65.504 36.7146,89.9753 25.3252,25.3205 55.8886,37.5744 91.7186,38.4343 35.8359,-0.859843 65.5158,-13.1138 89.9871,-38.4343 25.3488,-24.4713 37.5674,-54.1808 37.5674,-89.9753 0,-35.8347 -12.2185,-66.404 -37.5674,-91.7304 -7.87087,-7.86969 -15.7169,-13.9913 -23.589,-18.3437 -20.0823,-11.3646 -41.9268,-17.4555 -66.3981,-17.4555 -34.0512,-0.914174 -63.7595,10.474 -88.2249,33.1725 -1.7504,0.883465 -2.60433,1.74331 -3.4937,2.62677 -24.4725,25.3264 -36.7264,55.8957 -36.7264,91.7304l0.011811 0z"/>
  <path class="fil4" d="M1231.79 1176.19c-15.1476,-13.5697 -31.3843,-25.8792 -48.6626,-36.6118 -16.3866,-10.1787 -33.6425,-18.8764 -51.6473,-25.8118 -17.9705,-6.92127 -36.5398,-12.1099 -55.4906,-15.5362 -19.7339,-3.56693 -39.7937,-5.14016 -59.8382,-5.14016 -39.5693,0 -78.5776,6.25158 -115.621,20.3717 -36.5008,13.9146 -69.2315,34.6796 -98.1509,60.8705 -20.1142,18.2162 -51.3142,16.6524 -69.5186,-3.46772 -18.1996,-20.1154 -16.6382,-51.2941 3.46654,-69.502 38.0079,-34.4209 81.13,-61.7434 129.104,-80.0304 48.3,-18.411 99.0969,-26.8831 150.719,-26.8831 25.9181,0 51.7784,2.28071 77.2843,6.89174 25.0937,4.5378 49.6985,11.3847 73.4953,20.5512 23.7697,9.15473 46.5922,20.5465 68.2276,33.9839 22.1303,13.7457 42.8918,29.5973 62.2902,46.9737 20.2075,18.098 21.9414,49.2709 3.85158,69.489 -18.0957,20.224 -49.2922,21.9603 -69.5103,3.85158z"/>
  <path class="fil5" d="M1364.59 995.384c-99.2056,-88.7398 -227.073,-136.76 -360.001,-137.229 -133.204,-0.470079 -262.152,46.9087 -362.45,134.806 -20.3622,17.8429 -51.665,15.7524 -69.4902,-4.61929 -17.8181,-20.3634 -15.7288,-51.6319 4.61693,-69.463 118.296,-103.669 270.357,-159.727 427.498,-159.171 157.1,0.553937 308.229,57.4489 425.459,162.313 20.2252,18.091 21.9555,49.2792 3.86339,69.5008 -18.0933,20.2205 -49.2744,21.952 -69.4961,3.86221z"/>
  <path class="fil6" d="M480.743 683.473c150.601,-131.83 344.148,-202.477 544.023,-201.807 199.884,0.668504 392.894,72.6556 542.672,205.428 20.2996,17.9941 22.2083,49.154 4.22953,69.4725 -17.9882,20.328 -49.1882,22.2414 -69.5044,4.23071 -131.811,-116.847 -301.669,-180.096 -477.563,-180.684 -175.947,-0.589371 -346.405,61.3855 -479.007,177.461 -20.3669,17.8276 -51.6567,15.7394 -69.4796,-4.62874 -17.8205,-20.3669 -15.7335,-51.6473 4.62874,-69.4725z"/>
 </g>
</svg>
