<?xml version="1.0" encoding="utf-8"?>
<!-- Generator: Adobe Illustrator 24.0.0, SVG Export Plug-In . SVG Version: 6.00 Build 0)  -->
<svg version="1.1" id="Layer_1" xmlns="http://www.w3.org/2000/svg" xmlns:xlink="http://www.w3.org/1999/xlink" x="0px" y="0px"
	 viewBox="0 0 256 256" enable-background="new 0 0 256 256" xml:space="preserve">
<g>
</g>
<g>
	<polygon fill="#FD5D3D" points="236.358,50.147 236.358,233.174 19.642,233.174 19.642,50.147 	"/>
	<path fill="#FFCBC3" d="M226.5,225.323c-1.381,0-2.5-1.119-2.5-2.5V62.995H40.1c-1.381,0-2.5-1.119-2.5-2.5s1.119-2.5,2.5-2.5
		h186.4c1.381,0,2.5,1.119,2.5,2.5v162.327C229,224.203,227.881,225.323,226.5,225.323z M30.1,62.995h-3c-1.381,0-2.5-1.119-2.5-2.5
		s1.119-2.5,2.5-2.5h3c1.381,0,2.5,1.119,2.5,2.5S31.48,62.995,30.1,62.995z"/>
	<path fill="#EFEFEF" d="M241.5,22.821h-227c-5.523,0-10,4.477-10,10v7.334c0,5.523,4.477,10,10,10h227c5.523,0,10-4.477,10-10
		v-7.334C251.5,27.299,247.023,22.821,241.5,22.821z"/>
	<path fill="#FFFFFF" d="M241.5,43.656H31.405c-1.381,0-2.5-1.119-2.5-2.5s1.119-2.5,2.5-2.5H240v-5.834c0-1.381,1.119-2.5,2.5-2.5
		s2.5,1.119,2.5,2.5v7.334C245,42.085,243.43,43.656,241.5,43.656z M21.405,43.656H14.5c-1.381,0-2.5-1.119-2.5-2.5
		s1.119-2.5,2.5-2.5h6.905c1.381,0,2.5,1.119,2.5,2.5S22.786,43.656,21.405,43.656z"/>
	<path fill="#EFEFEF" d="M193.928,163.015v70.159H62.072v-70.159c0-25.888,15.021-48.439,36.717-59.119
		c18.003-8.914,39.74-9.25,58.421,0C179.437,114.87,193.928,137.753,193.928,163.015z"/>
	<path fill="#EEC11E" d="M80.329,233.169v-70.148c0-26.301,21.3-47.671,47.671-47.671c26.338,0,47.671,21.34,47.671,47.671v70.148
		H80.329z"/>
	<path fill="#FD5D3D" d="M159.382,162.542c-7.642,1.25-13.846,4.01-18.68,7.733c-0.453-10.502-4.684-20.872-12.703-28.891
		c-8.019,8.019-12.25,18.387-12.703,28.889c-4.833-3.722-11.037-6.481-18.677-7.73c-2.782,17.009,3.569,40.395,31.38,40.395
		S162.164,179.551,159.382,162.542z"/>
	<path fill="#F0C020" d="M136.765,194.172c0,4.841-3.924,8.765-8.765,8.765c-4.841,0-8.765-3.924-8.765-8.765
		c0-4.841,8.765-16.109,8.765-16.109S136.765,189.331,136.765,194.172z"/>
	<rect x="80.329" y="202.937" fill="#B34F33" width="95.341" height="30.232"/>
	<path d="M157.63,184.155c-1.22-0.57-2.76,0-3.32,1.21c0,0.01,0,0.01,0,0.01c-0.586,1.258-0.024,2.733,1.21,3.31
		c1.295,0.608,2.763,0.006,3.33-1.21v-0.01C159.42,186.215,158.88,184.735,157.63,184.155z"/>
	<path d="M137.128,220.323h-18.256c-1.381,0-2.5,1.119-2.5,2.5s1.119,2.5,2.5,2.5h18.256c1.381,0,2.5-1.119,2.5-2.5
		S138.509,220.323,137.128,220.323z"/>
	<path d="M122.05,94.845c-1.363,0.124-2.397,1.3-2.27,2.71c0.126,1.479,1.54,2.441,2.699,2.27c1.081,0,2.42-1.143,2.28-2.71
		C124.64,95.765,123.41,94.725,122.05,94.845z"/>
	<path d="M241.5,20.325h-200c-1.38,0-2.5,1.12-2.5,2.5c0,1.38,1.12,2.5,2.5,2.5h200c4.13,0,7.49,3.37,7.5,7.5v7.33
		c-0.01,4.13-3.37,7.49-7.5,7.5c-3.758,0-226.397,0-227,0c-4.13-0.01-7.49-3.37-7.5-7.5v-7.33c0.01-4.13,3.37-7.5,7.5-7.5h7
		c1.38,0,2.5-1.12,2.5-2.5c0-1.38-1.12-2.5-2.49-2.5H21.5h-7c-6.891,0-12.5,5.61-12.5,12.5v7.33c0,6.89,5.609,12.5,12.5,12.5h2.643
		v178.02H4.5c-1.38,0-2.5,1.12-2.5,2.5c0,1.38,1.12,2.5,2.5,2.5c9.045,0,235.375,0,247,0c1.38,0,2.5-1.12,2.5-2.5
		c0-1.38-1.12-2.5-2.5-2.5h-12.643V52.655h2.643c6.89,0,12.5-5.61,12.5-12.5v-7.33C254,25.935,248.39,20.325,241.5,20.325z
		 M196.43,230.674v-23.641h16.7v23.641H196.43z M125.5,52.655v25.867H72.08V52.655H125.5z M154.71,100.007
		c-7.068-3.007-14.55-4.787-22.29-5.282c-1.37-0.11-2.57,0.97-2.66,2.33c-0.082,1.372,0.954,2.577,2.34,2.66
		c33.39,2.147,59.33,29.949,59.33,63.3c0,5.367,0,59,0,67.659h-13.259c0-22.6,0-45.118,0-67.653
		c0-27.665-22.507-50.171-50.171-50.171s-50.171,22.506-50.171,50.171c0,22.536,0,45.053,0,67.653h-13.26c0-7.886,0-58.853,0-67.659
		c0-29.229,20.02-54.741,48.431-61.64c1.34-0.32,2.16-1.68,1.84-3.02c-0.32-1.31-1.69-2.16-3.021-1.84
		c-3.605,0.875-7.131,2.048-10.529,3.489V83.522c1.224,0,13.647,0,53.42,0V100.007z M233.857,114.408v25.875
		c-4.062,0-36.924,0-41.316,0c-1.105-3.126-2.212-5.699-3.621-8.433v-17.442H233.857z M196.43,202.033v-25.875h37.428v25.875H196.43
		z M196.43,171.158v-8.143c0-6.011-0.795-11.956-2.34-17.732h19.04v25.875H196.43z M218.13,171.158v-25.875h15.728v25.875H218.13z
		 M183.92,123.608c-2.317-3.287-4.906-6.365-7.775-9.2h7.775V123.608z M82.829,217.482h21.902c1.381,0,2.5-1.119,2.5-2.5
		s-1.119-2.5-2.5-2.5H82.829v-7.045h90.342v7.045h-21.813c-1.381,0-2.5,1.119-2.5,2.5s1.119,2.5,2.5,2.5h21.813v13.187H82.829
		V217.482z M121.735,194.172c0-2.242,3.221-7.619,6.266-11.911c3.044,4.29,6.264,9.665,6.264,11.911c0,3.537-2.927,6.31-6.316,6.262
		C124.518,200.406,121.735,197.609,121.735,194.172z M173.171,200.437h-25.635c1.882-1.161,3.608-2.513,5.154-4.062
		c1.017-1.037,0.932-2.609,0-3.54c-0.939-0.94-2.59-0.95-3.529-0.01c-2.986,2.963-6.689,5.061-11.057,6.296
		c0.736-1.496,1.161-3.172,1.161-4.949c0-5.424-7.74-15.649-9.291-17.644c-1.001-1.287-2.948-1.284-3.947,0
		c-1.551,1.995-9.291,12.22-9.291,17.644c0,1.792,0.432,3.481,1.179,4.987c-14.814-4.121-20.707-18.585-19.164-33.663
		c5.78,1.27,10.84,3.54,15.02,6.76c1.54,1.197,3.932,0.202,4.021-1.88c0.41-9.35,4.029-18.35,10.21-25.34
		c6.17,6.99,9.8,15.99,10.2,25.35c0.087,2.016,2.428,3.1,4.029,1.87c4.181-3.22,9.23-5.49,15.021-6.76
		c0.392,3.856,0.268,7.573-0.28,10.98c-0.227,1.356,0.711,2.654,2.07,2.86c1.359,0.23,2.649-0.72,2.859-2.07
		c0.792-4.949,0.77-10.09-0.05-15.13c-0.23-1.366-1.533-2.286-2.87-2.06c-6.029,0.98-11.47,2.92-16.17,5.74
		c-1.358-9.811-5.853-19.013-13.04-26.2c-0.93-0.93-2.609-0.93-3.54,0c-7.113,7.115-11.664,16.261-13.04,26.2
		c-4.699-2.82-10.14-4.76-16.17-5.74c-1.35-0.22-2.649,0.71-2.87,2.06c-2.39,14.569,1.724,30.495,14.318,38.302H82.829v-37.416
		c0-24.907,20.264-45.171,45.171-45.171s45.171,20.264,45.171,45.171V200.437z M22.143,202.033v-25.875h37.427v25.875
		C54.886,202.033,26.398,202.033,22.143,202.033z M67.08,114.408v17.44c-1.41,2.728-2.517,5.301-3.622,8.435H22.143v-25.875H67.08z
		 M79.846,114.408c-2.866,2.834-5.452,5.911-7.766,9.196v-9.196H79.846z M59.569,163.015v8.143H42.87v-25.875h19.039
		C60.364,151.06,59.569,157.004,59.569,163.015z M37.87,145.283v25.875H22.143v-25.875H37.87z M96.29,83.522v18.851
		c-4.468,2.347-8.341,5.025-10.819,7.035c-4.614,0-38.381,0-42.601,0V83.522C44.094,83.522,56.518,83.522,96.29,83.522z
		 M37.87,109.408H22.143V83.522H37.87V109.408z M22.143,207.033H37.87v23.641H22.143V207.033z M42.87,207.033h16.699v23.641H42.87
		V207.033z M218.13,207.033h15.728v23.641H218.13V207.033z M233.857,109.408H218.13V83.522h15.728V109.408z M213.13,109.408
		c-4.196,0-37.993,0-42.598,0c-2.458-2.002-6.332-4.674-10.822-7.034V83.522c1.224,0,13.648,0,53.42,0V109.408z M130.5,78.522
		V52.655c21.934,0,48.081-0.008,53.42-0.008v25.875H130.5z M67.08,52.655v25.867H22.143V52.655H67.08z M233.857,78.522H188.92
		V52.655h44.938V78.522z"/>
	<circle cx="31.5" cy="22.825" r="2.5"/>
</g>
</svg>
